<?xml version="1.0" encoding="UTF-8" standalone="no"?>
<svg
   width="80"
   height="80"
   viewBox="0 0 80 80"
   fill="none"
   version="1.1"
   id="svg2"
   sodipodi:docname="rotate-ccw.svg"
   inkscape:version="1.4.2 (ebf0e940d0, 2025-05-08)"
   xmlns:inkscape="http://www.inkscape.org/namespaces/inkscape"
   xmlns:sodipodi="http://sodipodi.sourceforge.net/DTD/sodipodi-0.dtd"
   xmlns="http://www.w3.org/2000/svg"
   xmlns:svg="http://www.w3.org/2000/svg">
  <defs
     id="defs2" />
  <sodipodi:namedview
     id="namedview2"
     pagecolor="#ffffff"
     bordercolor="#999999"
     borderopacity="1"
     inkscape:showpageshadow="0"
     inkscape:pageopacity="0"
     inkscape:pagecheckerboard="0"
     inkscape:deskcolor="#d1d1d1"
     inkscape:zoom="5"
     inkscape:cx="15.6"
     inkscape:cy="45.4"
     inkscape:window-width="1920"
     inkscape:window-height="1006"
     inkscape:window-x="0"
     inkscape:window-y="0"
     inkscape:window-maximized="1"
     inkscape:current-layer="svg2" />
  <path
     d="m 48.596109,16.1016 -1.148,2.7716 v 0 z m -7.2991,1.1791 c -1.6461,-0.1883 -2.8279,-1.6755 -2.6395,-3.3216 0.1883,-1.6461 1.6754,-2.8278 3.3215,-2.6395 z m 0.6628,-5.9633 c 1.6462,0.1872 2.829,1.6736 2.6418,3.3198 -0.1873,1.6463 -1.6736,2.829 -3.3198,2.6418 z m -0.7578,5.9526 c -1.6469,-0.1814 -2.8348,-1.6636 -2.6534,-3.3105 0.1815,-1.6469 1.6637,-2.8348 3.3105,-2.6534 z m 21.3941,12.8316 -2.7716,1.148 z m 0,19.799 2.7717,1.148 v 0 z m -14,14 1.1481,2.7716 v 0 z m -19.799,0 -1.148,2.7716 z m -14,-14 -2.7716,1.148 z m -3.6205,-1.179 c -0.5006,-1.5795 0.374,-3.2656 1.9534,-3.7662 1.5795,-0.5005 3.2656,0.3741 3.7662,1.9535 z m 36.2715,-29.8484 c -1.9842,-0.8219 -4.055,-1.3527 -6.1511,-1.5925 l 0.682,-5.9611 c 2.6463,0.3028 5.2607,0.9729 7.7652,2.0103 z m -6.1663,-1.5942 c -0.0266,-0.0031 -0.0532,-0.006 -0.0798,-0.009 l 0.6571,-5.9639 c 0.0336,0.0037 0.0672,0.0075 0.1007,0.0113 z m 18.5427,13.9706 c -2.321,-5.6034 -6.773,-10.0554 -12.3764,-12.3764 l 2.2961,-5.5433 c 7.0736,2.93 12.6936,8.55 15.6236,15.6236 z m 0,17.5029 c 2.321,-5.6035 2.321,-11.8994 0,-17.5029 l 5.5433,-2.2961 c 2.93,7.0736 2.93,15.0215 0,22.0951 z m -12.3764,12.3764 c 5.6034,-2.321 10.0554,-6.7729 12.3764,-12.3764 l 5.5433,2.2961 c -2.93,7.0736 -8.55,12.6936 -15.6236,15.6236 z m -17.5029,0 c 5.6034,2.321 11.8994,2.321 17.5029,0 l 2.2961,5.5433 c -7.0737,2.93 -15.0215,2.93 -22.0951,0 z m -12.3764,-12.3764 c 2.321,5.6035 6.7729,10.0554 12.3764,12.3764 l -2.2961,5.5433 c -7.0736,-2.93 -12.6936,-8.55 -15.6236,-15.6236 z m -5.5433,2.2961 c -0.3173,-0.7661 -0.6003,-1.5425 -0.8489,-2.327 l 5.7196,-1.8127 c 0.1969,0.6214 0.4211,1.2366 0.6726,1.8436 z"
     fill="#c2ccde"
     id="path1" />
  <path
     d="M 41.530609,23.4038 V 6.59619 c 0,-1.69611 -2.0507,-2.54552 -3.25,-1.34619 l -7.6287,7.6287 c -1.1716,1.1716 -1.1716,3.071 0,4.2426 l 7.6287,7.6287 c 1.1993,1.1993 3.25,0.3499 3.25,-1.3462 z"
     fill="#c2ccde"
     stroke="#c2ccde"
     stroke-width="4"
     stroke-linecap="round"
     stroke-linejoin="round"
     id="path2" />
</svg>
